<?xml version="1.0" encoding="utf-8"?>
<!-- Generator: Adobe Illustrator 16.0.4, SVG Export Plug-In . SVG Version: 6.00 Build 0)  -->
<!DOCTYPE svg PUBLIC "-//W3C//DTD SVG 1.1//EN" "http://www.w3.org/Graphics/SVG/1.1/DTD/svg11.dtd">
<svg version="1.1" id="Layer_1" xmlns="http://www.w3.org/2000/svg" xmlns:xlink="http://www.w3.org/1999/xlink" x="0px" y="0px"
	 viewBox="0 0 112.121 71.773" style="enable-background:new 0 0 112.121 71.773;"
	 xml:space="preserve">
<polygon points="52.595,0 29.163,19.662 21.677,22.41 21.621,22.516 18.698,23.588 18.323,23.639 18.296,23.648 18.188,23.793
	15.877,24.641 15.718,24.598 0,30.365 29.164,40.896 55.847,31.178 55.943,31.041 57.882,30.314 57.087,25.713 57.156,25.635
	52.608,0 "/>
<g>
	<g>
		<path style="fill:#FFFFFF;" d="M57.156,25.637c-0.447-0.801-1.598-1.309-2.891-1.264c-1.286,0.043-2.191,0.592-2.59,1.213
			l-0.132-0.932h-2.085l0.444,6.52h2.305l-0.177-2.262c-0.166-1.502,0.295-2.836,1.726-2.896c1.151-0.047,1.426,0.697,1.603,1.795
			l0.488,3.367L58,30.393L57.156,25.637z M24.773,24.926c0.043-1.523-1.325-2.32-3.095-2.518c-0.007,0-1.754,0.642-3.355,1.23h1.882
			c1.33,0,2.217,0.488,2.173,1.287c-0.044,1.197-1.331,1.463-3.104,1.463h-1.553l0.575-2.74c-1.342,0.494-2.574,0.947-2.574,0.947
			l-1.46,6.582h2.528l0.665-3.324l2.129-0.002l1.552,3.326h2.705l-1.951-3.637C23.664,27.275,24.729,26.123,24.773,24.926z
			 M38.811,24.66l-2.218,4.611l-1.02-4.611h-2.35l1.64,6.518h2.794l3.459-6.518H38.811z M32.766,26.699
			c0.088-1.33-0.931-2.35-3.593-2.35c-3.501-0.002-3.768,1.771-3.812,2.084h2.172c0.045-0.268,0.179-0.842,1.596-0.842
			c1.42,0,1.508,0.752,1.464,1.283c-1.641,0.312-5.631-0.043-5.898,2.396c-0.133,1.197,0.754,2.084,2.882,2.084
			c1.332,0,2.395-0.4,2.884-0.887v0.709h2.349c-0.222-0.398-0.222-0.621-0.222-1.02L32.766,26.699z M30.46,28.518
			c-0.045,0.754-0.71,1.463-2.307,1.463c-1.02,0-1.286-0.443-1.153-0.975c0.222-0.889,2.085-0.844,3.504-1.021L30.46,28.518z
			 M48.951,28.162c0.001-1.598-0.443-3.902-3.768-3.902c-2.484,0-4.568,1.643-4.656,4.125c-0.046,1.818,1.419,3.104,4.035,3.104
			c1.951,0,3.414-0.664,3.946-1.197l-0.975-1.242c-0.355,0.266-1.242,0.887-2.705,0.887c-2.04,0-2.084-1.375-1.996-1.773H48.951z
			 M45.005,25.545c1.508,0,1.596,1.109,1.596,1.42h-3.546C43.187,26.521,43.72,25.545,45.005,25.545z"/>
	</g>
</g>
<path d="M56.385,34.301l0.12,0.053l0.707,3.975l-0.086,0.135l0.315,1.773l0.104,0.064l0.244,1.375l-0.079,0.072l4.101,23.041
	l29.114-10.596c0,0-2.312-12.801-4.088-22.768l-0.193-0.307l-1.236-6.99l0.08-0.328L61.792,3.926L56.385,34.301z"/>
<polygon points="82.958,40.756 84.374,48.684 84.554,48.859 85.819,55.932 85.698,56.094 88.417,71.305 106.455,56.166
	106.322,56.025 108.457,54.234 108.741,54.248 112.121,51.414 106.847,49.486 106.637,49.582 104.041,48.633 104.055,48.465 "/>
<g>
	<g>
		<path style="fill:#FFFFFF;" d="M105.187,54.533c-1.82,0-2.557-1.344-2.773-1.951h6.37c-0.391-1.904-1.517-2.771-1.907-3.074
			c-0.011-0.01-0.021-0.016-0.031-0.021l-2.792-1.021c-0.477-0.07-0.822-0.084-0.904-0.084c-2.34,0-3.943,1.299-3.38,3.898
			c0.563,2.602,2.471,4.031,5.504,4.029c0.36,0,0.763-0.039,1.182-0.143l2.285-1.918l-1.301-0.668
			C107.267,53.797,106.747,54.533,105.187,54.533z M103.626,49.854c1.647,0,2.167,0.998,2.34,1.43h-3.9
			C102.066,51.023,101.979,49.854,103.626,49.854z M89.586,50.244l-0.434-1.734c0,0-0.13-0.043-0.346-0.043
			c-0.477,0-1.82,0.172-2.21,1.301l-0.26-1.084h-1.962l1.323,7.41l2.242-0.002l-0.694-3.25
			C86.856,50.98,87.418,50.287,89.586,50.244z M94.959,48.379c-0.39,0-2.08,0.133-2.47,1.301l-0.304-0.996h-2.253l1.733,7.41h2.427
			l-0.866-3.293c-0.347-1.344-0.13-2.645,1.256-2.688c1.343-0.043,1.646,0.996,1.863,1.777l1.17,4.203h2.384l-1.517-5.242
			C97.95,49.42,96.91,48.379,94.959,48.379z"/>
	</g>
</g>
<path style="fill:#FFFFFF;" d="M84.186,27.824c0.201,1.311,0.376,2.678-1.253,3.271c-0.977,0.354-1.363-0.197-1.544-1.33
	l-0.746-4.201l-1.954,0.711l0.826,4.68c0.331,2.049,1.42,2.758,3.17,2.119c1.222-0.443,2.032-1.385,2.265-1.885l0.135,0.875
	l1.751-0.639l-0.368-2.078c-0.372-2.1-0.709-4.004-0.979-5.547l-1.872,0.682L84.186,27.824z"/>
<path style="fill:#FFFFFF;" d="M64.8,35.25c-0.311-1.361,0.162-2.596,1.221-2.98c1.384-0.504,2.155,0.6,2.348,1.635
	c0.319,1.639-0.422,2.645-1.317,2.969C66.034,37.244,65.112,36.611,64.8,35.25 M65.301,39.033l-0.137-1.01
	c0.481,0.561,1.367,0.838,2.587,0.395c1.223-0.443,3.114-1.963,2.532-5.209c-0.433-2.332-2.311-3.311-4.062-2.674
	c-0.245,0.09-1.156,0.375-1.947,1.494l-0.578-3.617l-1.833,0.666l1.769,10.562L65.301,39.033z"/>
<path style="fill:#FFFFFF;" d="M60.233,38.664c0.126,0.602-0.356,1.053-1.211,1.363c-0.648,0.236-1.385,0.229-1.581,0.207
	l0.15,0.842l0.119,0.672c0.426,0.029,1.114,0.012,1.887-0.27c1.995-0.727,3.017-1.975,2.853-3.438
	c-0.363-3.279-5.093-0.312-5.302-1.896c-0.085-0.615,0.603-1.004,1.01-1.152c1.1-0.4,2.007-0.314,2.636,0.148l0.852-1.463
	c-1.218-0.941-3.085-0.492-3.655-0.283c-0.569,0.207-1.07,0.48-1.606,0.906l0.741,4.16C58.457,38.572,60.044,37.768,60.233,38.664"
	/>
<path style="fill:#FFFFFF;" d="M72.941,32.148c-0.216-1.352,0.303-2.463,1.402-2.861c1.344-0.49,2.095,0.436,2.336,1.73
	c0.238,1.16-0.095,2.525-1.398,3C74.019,34.479,73.171,33.541,72.941,32.148 M75.641,35.639c2.565-0.934,3.475-2.74,3.023-5.25
	c-0.52-2.947-2.956-3.305-4.584-2.713c-2.932,1.066-3.413,3.549-3.064,5.266C71.397,34.877,72.83,36.662,75.641,35.639"/>
<g>
</g>
<g>
</g>
<g>
</g>
<g>
</g>
<g>
</g>
<g>
</g>
<g>
</g>
<g>
</g>
<g>
</g>
<g>
</g>
<g>
</g>
<g>
</g>
<g>
</g>
<g>
</g>
<g>
</g>
</svg>
