<?xml version="1.0" encoding="utf-8"?>
<!-- Generator: Adobe Illustrator 16.0.0, SVG Export Plug-In . SVG Version: 6.00 Build 0)  -->
<!DOCTYPE svg PUBLIC "-//W3C//DTD SVG 1.1//EN" "http://www.w3.org/Graphics/SVG/1.1/DTD/svg11.dtd">
<svg version="1.1" id="Layer_1" xmlns="http://www.w3.org/2000/svg" xmlns:xlink="http://www.w3.org/1999/xlink" x="0px" y="0px"
	 viewBox="0 0 841.889 1190.551" enable-background="new 0 0 841.889 1190.551"
	 xml:space="preserve">
<polygon fill="#0000FF" points="394.923,325.812 218.978,473.449 162.768,494.084 162.347,494.88 140.399,502.928 137.583,503.311
	137.38,503.379 136.57,504.468 119.217,510.836 118.023,510.512 0,553.815 218.986,632.89 419.341,559.92 420.063,558.891
	434.621,553.432 428.653,518.885 429.17,518.299 395.021,325.812 "/>
<g>
	<g>
		<path fill="#FFFFFF" d="M429.17,518.314c-3.356-6.015-11.999-9.829-21.708-9.491c-9.656,0.323-16.451,4.445-19.447,9.108
			l-0.991-6.998h-15.655l3.333,48.957h17.309l-1.329-16.985c-1.247-11.278,2.215-21.295,12.96-21.745
			c8.643-0.353,10.707,5.233,12.036,13.479l3.664,25.281l16.167-5.894L429.17,518.314z M186.015,512.975
			c0.322-11.436-9.949-17.42-23.24-18.907c-0.053,0-13.17,4.82-25.191,9.236h14.131c9.987,0,16.647,3.664,16.317,9.663
			c-0.331,8.988-9.995,10.985-23.308,10.985h-11.661l4.317-20.574c-10.076,3.71-19.327,7.111-19.327,7.111l-10.963,49.423h18.982
			l4.993-24.959l15.986-0.016l11.653,24.975h20.311l-14.649-27.31C177.688,530.613,185.684,521.964,186.015,512.975z
			 M291.422,510.978l-16.654,34.623l-7.659-34.623h-17.646l12.314,48.941h20.979l25.973-48.941H291.422z M246.031,526.289
			c0.661-9.987-6.99-17.646-26.979-17.646c-26.288-0.015-28.293,13.299-28.623,15.648h16.309c0.338-2.012,1.344-6.322,11.984-6.322
			c10.662,0,11.323,5.646,10.992,9.634c-12.321,2.343-42.281-0.323-44.286,17.991c-0.999,8.988,5.661,15.648,21.64,15.648
			c10.002,0,17.984-3.004,21.655-6.66v5.323h17.639c-1.667-2.988-1.667-4.663-1.667-7.659L246.031,526.289z M228.717,539.947
			c-0.338,5.661-5.331,10.985-17.323,10.985c-7.658,0-9.656-3.326-8.657-7.321c1.667-6.676,15.655-6.338,26.311-7.666
			L228.717,539.947z M367.561,537.273c0.008-11.998-3.326-29.299-28.293-29.299c-18.651,0-34.3,12.337-34.96,30.974
			c-0.346,13.651,10.654,23.308,30.297,23.308c14.65,0,25.636-4.986,29.63-8.988l-7.321-9.326c-2.665,1.998-9.325,6.66-20.311,6.66
			c-15.318,0-15.648-10.324-14.987-13.312h45.945V537.273z M337.932,517.623c11.323,0,11.983,8.328,11.983,10.663h-26.626
			C324.281,524.952,328.282,517.623,337.932,517.623z"/>
	</g>
</g>
<path fill="#0000FF" d="M423.381,583.37l0.901,0.398l5.309,29.847l-0.646,1.014l2.365,13.313l0.78,0.48l1.832,10.324l-0.593,0.541
	l30.793,173.009l218.61-79.562c0,0-17.36-96.119-30.695-170.959l-1.449-2.306l-9.281-52.486l0.601-2.463L463.981,355.291
	L423.381,583.37z"/>
<polygon fill="#0000FF" points="622.911,631.839 633.544,691.369 634.896,692.682 644.394,745.792 643.486,747.009 663.902,861.224
	799.345,747.549 798.346,746.49 814.377,733.042 816.51,733.147 841.889,711.867 802.288,697.39 800.711,698.111 781.219,690.985
	781.323,689.724 "/>
<g>
	<g>
		<path fill="#FFFFFF" d="M789.823,735.287c-13.666,0-19.2-10.092-20.821-14.649h47.83c-2.936-14.297-11.391-20.807-14.318-23.082
			c-0.083-0.075-0.158-0.12-0.233-0.157l-20.964-7.667c-3.582-0.525-6.173-0.631-6.788-0.631c-17.57,0-29.607,9.754-25.38,29.27
			c4.228,19.538,18.555,30.268,41.328,30.253c2.703,0,5.729-0.293,8.875-1.074l17.158-14.401l-9.77-5.016
			C805.442,729.76,801.537,735.287,789.823,735.287z M778.103,700.154c12.366,0,16.271,7.493,17.57,10.737h-29.284
			C766.389,708.931,765.736,700.154,778.103,700.154z M672.68,703.082l-3.259-13.02c0,0-0.977-0.323-2.599-0.323
			c-3.582,0-13.666,1.292-16.594,9.769l-1.953-8.139h-14.731l9.934,55.64l16.835-0.016l-5.211-24.403
			C652.181,708.608,656.401,703.405,672.68,703.082z M713.024,689.078c-2.928,0-15.618,0.999-18.546,9.77l-2.283-7.479h-16.917
			l13.013,55.64h18.224l-6.503-24.727c-2.605-10.092-0.976-19.86,9.432-20.184c10.084-0.323,12.359,7.479,13.988,13.343l8.785,31.56
			h17.901l-11.391-39.36C735.483,696.895,727.674,689.078,713.024,689.078z"/>
	</g>
</g>
<path fill="#FFFFFF" d="M632.132,534.736c1.51,9.844,2.823,20.108-9.408,24.561c-7.336,2.658-10.234-1.479-11.594-9.986
	l-5.602-31.544l-14.672,5.338l6.202,35.142c2.485,15.385,10.662,20.709,23.803,15.911c9.176-3.326,15.258-10.399,17.007-14.154
	l1.014,6.57l13.148-4.798l-2.764-15.604c-2.793-15.769-5.323-30.065-7.351-41.651l-14.057,5.121L632.132,534.736z"/>
<path fill="#FFFFFF" d="M486.568,590.496c-2.335-10.22,1.216-19.493,9.168-22.376c10.393-3.784,16.182,4.505,17.631,12.276
	c2.396,12.307-3.169,19.861-9.89,22.294C495.833,605.469,488.91,600.716,486.568,590.496 M490.329,618.901l-1.028-7.584
	c3.611,4.213,10.264,6.293,19.425,2.967c9.183-3.327,23.382-14.74,19.012-39.113c-3.251-17.511-17.353-24.861-30.5-20.079
	c-1.84,0.676-8.681,2.816-14.62,11.219l-4.34-27.159l-13.764,5.001l13.283,79.308L490.329,618.901z"/>
<path fill="#FFFFFF" d="M452.275,616.131c0.946,4.521-2.673,7.907-9.093,10.234c-4.866,1.772-10.399,1.72-11.871,1.555l1.126,6.322
	l0.894,5.046c3.199,0.218,8.365,0.09,14.169-2.027c14.979-5.459,22.654-14.83,21.423-25.815
	c-2.726-24.621-38.242-2.343-39.812-14.236c-0.639-4.618,4.527-7.539,7.584-8.65c8.259-3.003,15.069-2.357,19.793,1.111
	l6.397-10.985c-9.146-7.065-23.165-3.694-27.444-2.125c-4.272,1.555-8.035,3.604-12.06,6.803l5.564,31.237
	C438.94,615.44,450.856,609.403,452.275,616.131"/>
<path fill="#FFFFFF" d="M547.697,567.204c-1.622-10.152,2.274-18.494,10.527-21.482c10.092-3.68,15.73,3.273,17.54,12.989
	c1.787,8.711-0.713,18.96-10.497,22.526C555.79,584.707,549.423,577.664,547.697,567.204 M567.97,593.417
	c19.26-7.014,26.093-20.574,22.699-39.421c-3.905-22.129-22.196-24.816-34.421-20.371c-22.016,8.004-25.627,26.648-23.007,39.541
	C536.103,587.695,546.863,601.098,567.97,593.417"/>
</svg>
