<?xml version="1.0" encoding="utf-8"?>
<!-- Generator: Adobe Illustrator 16.0.4, SVG Export Plug-In . SVG Version: 6.00 Build 0)  -->
<!DOCTYPE svg PUBLIC "-//W3C//DTD SVG 1.1//EN" "http://www.w3.org/Graphics/SVG/1.1/DTD/svg11.dtd">
<svg version="1.1" id="Layer_1" xmlns="http://www.w3.org/2000/svg" xmlns:xlink="http://www.w3.org/1999/xlink" x="0px" y="0px"
	 viewBox="0 0 170.411 200" style="enable-background:new 0 0 170.411 200;" xml:space="preserve"
	>
<polygon points="50.175,16.822 22.024,33.075 17.051,30.203 45.202,13.951 36.176,8.74 40.616,6.177 63.639,19.47 59.2,22.034 "/>
<polygon points="53.111,51.023 67.345,42.804 54.037,35.121 39.803,43.339 34.828,40.469 67.418,21.653 72.393,24.524
	58.478,32.557 71.787,40.241 85.701,32.208 90.674,35.08 58.085,53.894 "/>
<polygon points="64.213,57.433 96.803,38.617 117.757,50.715 113.317,53.277 97.337,44.052 87.815,49.548 101.447,57.418
	97.053,59.955 83.422,52.086 73.626,57.742 89.605,66.968 85.165,69.531 "/>
<path d="M24.611,57.901c-1.381-2.54-3.224-4.397-5.573-5.754l-6.033-3.483v27.38l6.033,3.481c2.349,1.357,4.191,1.628,5.573,0.681
	c1.704-1.184,1.748-5.227,1.748-10.406C26.359,64.619,26.314,61.053,24.611,57.901 M28.019,86.295
	c-2.072,1.184-5.065,0.618-8.473-1.349L8.032,78.299V40.667l11.513,6.646c3.408,1.97,6.401,4.86,8.473,8.436
	c3.544,6.116,3.316,11.48,3.316,16.925C31.335,78.116,31.562,84.274,28.019,86.295"/>
<polygon points="35.482,94.146 35.482,56.515 56.436,68.613 56.436,73.74 40.455,64.514 40.455,75.507 54.087,83.376 54.087,88.451
	40.455,80.582 40.455,91.892 56.436,101.117 56.436,106.244 "/>
<path d="M80.201,116.001c-2.487,1.578-5.572,1.064-9.026-0.93c-3.409-1.969-6.356-5.097-8.612-8.987
	c-3.223-5.562-3.177-9.711-3.177-16.952c0-7.241-0.045-11.443,3.177-13.281c2.256-1.288,5.111-1.067,8.612,0.954
	c6.953,4.015,11.006,11.587,11.926,18.568l-5.019-2.899c-0.829-4.6-3.223-8.414-6.907-10.541c-1.936-1.118-3.685-1.229-4.836-0.467
	c-1.612,1.079-1.979,2.979-1.979,10.537c0,7.559,0.368,9.94,1.979,12.877c1.151,2.092,2.9,3.948,4.836,5.063
	c2.163,1.25,4.051,1.389,5.341,0.442c1.198-0.895,1.657-2.531,1.657-4.963v-2.113l-6.998-4.042v-4.861l11.972,6.913v5.761
	C83.147,111.942,82.365,114.608,80.201,116.001"/>
<path d="M100.558,99.213l-7.368-4.253v11.784l7.368,4.256c3.315,1.914,5.572,1.05,5.572-2.647
	C106.13,104.65,103.873,101.128,100.558,99.213 M106.313,135.043l-6.907-19.844l-6.217-3.592v15.858l-4.972-2.872V86.961
	l12.708,7.338c6.219,3.59,10.178,10.475,10.178,16.87c0,5.391-2.855,7.178-6.54,6.214l7.553,21.011L106.313,135.043z"/>
<polygon points="117.14,141.294 117.14,103.659 138.093,115.758 138.093,120.884 122.112,111.658 122.112,122.651 135.745,130.522
	135.745,135.598 122.112,127.726 122.112,139.036 138.093,148.264 138.093,153.39 "/>
<polygon points="143.347,156.422 143.347,118.79 164.301,130.888 164.301,136.014 148.32,126.789 148.32,137.783 161.949,145.652
	161.949,150.727 148.32,142.855 148.32,154.166 164.301,163.393 164.301,168.52 "/>
<path d="M20.078,137.911c-4.927-2.844-8.472-6.212-11.604-11.669l3.315-1.839c2.394,4.131,5.019,6.494,8.38,8.433
	c4.284,2.475,6.771,1.796,6.771-1.851c0-1.639-0.416-3.253-1.291-4.656c-0.83-1.378-1.658-2.225-3.592-3.66l-3.868-2.866
	c-2.672-1.965-4.789-4.246-6.218-6.603c-1.61-2.674-2.393-5.504-2.393-8.571c0-6.553,4.144-8.653,10.96-4.718
	c4.328,2.499,7.368,5.524,10.175,10.157l-3.177,1.759c-2.026-3.391-4.375-5.433-7.138-7.027c-3.868-2.232-5.987-0.92-5.987,2.407
	c0,1.378,0.369,2.805,1.242,4.208c0.83,1.324,2.166,2.731,3.685,3.872l3.73,2.787c3.039,2.285,4.744,4.113,6.125,6.337
	c1.795,2.836,2.669,6.035,2.669,9.259C31.866,140.595,26.941,141.872,20.078,137.911"/>
<polygon points="54.389,157.404 54.389,140.967 41.08,133.282 41.08,149.722 36.107,146.846 36.107,109.217 41.08,112.087
	41.08,128.154 54.389,135.839 54.389,119.771 59.362,122.643 59.362,160.277 "/>
<path d="M80.319,141.878c-1.151-2.092-2.946-4.027-4.879-5.144c-1.935-1.118-3.731-1.256-4.884-0.494
	c-1.61,1.081-1.934,3.008-1.934,10.564c0,7.56,0.324,9.859,1.934,12.797c1.152,2.092,2.949,4.028,4.884,5.146
	c1.933,1.115,3.729,1.255,4.879,0.49c1.612-1.076,1.936-3.005,1.936-10.562S81.931,144.816,80.319,141.878 M84.095,170.855
	c-2.256,1.287-5.156,1.038-8.655-0.981c-3.5-2.019-6.357-5.097-8.611-8.989c-3.225-5.561-3.178-9.71-3.178-16.951
	c0-7.24-0.047-11.442,3.178-13.281c2.254-1.288,5.111-1.066,8.611,0.953c3.5,2.022,6.399,5.124,8.655,9.017
	c3.224,5.562,3.132,9.683,3.132,16.924S87.318,169.018,84.095,170.855"/>
<polygon points="119.328,194.895 114.999,192.396 108.321,162.167 101.69,184.712 97.362,182.214 88.796,139.637 94.047,142.666
	99.754,172.864 106.341,149.766 110.348,152.079 116.933,182.784 122.643,159.179 127.893,162.209 "/>
<g>
</g>
<g>
</g>
<g>
</g>
<g>
</g>
<g>
</g>
<g>
</g>
<g>
</g>
<g>
</g>
<g>
</g>
<g>
</g>
<g>
</g>
<g>
</g>
<g>
</g>
<g>
</g>
<g>
</g>
</svg>
