<?xml version="1.0" encoding="utf-8"?>
<!-- Generator: Adobe Illustrator 16.0.0, SVG Export Plug-In . SVG Version: 6.00 Build 0)  -->
<!DOCTYPE svg PUBLIC "-//W3C//DTD SVG 1.1//EN" "http://www.w3.org/Graphics/SVG/1.1/DTD/svg11.dtd">
<svg version="1.1" id="Layer_1" xmlns="http://www.w3.org/2000/svg" xmlns:xlink="http://www.w3.org/1999/xlink" x="0px" y="0px"
	 viewBox="0 0 841.889 1190.551" enable-background="new 0 0 841.889 1190.551"
	 xml:space="preserve">
<polygon fill="#0000FF" points="247.882,184.346 108.806,264.642 84.238,250.454 223.314,170.163 178.722,144.419 200.657,131.757
	314.399,197.428 292.469,210.095 "/>
<polygon fill="#0000FF" points="262.387,353.311 332.707,312.707 266.961,274.75 196.641,315.35 172.063,301.171 333.069,208.214
	357.647,222.397 288.902,262.083 354.653,300.045 423.393,260.359 447.961,274.548 286.96,367.495 "/>
<polygon fill="#0000FF" points="317.235,384.979 478.24,292.021 581.76,351.79 559.825,364.447 480.878,318.873 433.836,346.024
	501.183,384.905 479.475,397.439 412.133,358.563 363.738,386.506 442.68,432.086 420.744,444.748 "/>
<path fill="#0000FF" d="M121.587,387.292c-6.823-12.549-15.928-21.724-27.533-28.428l-29.805-17.207v135.268l29.805,17.197
	c11.605,6.704,20.705,8.043,27.533,3.364c8.418-5.85,8.636-25.823,8.636-51.409C130.223,420.48,130,402.863,121.587,387.292
	 M138.424,527.568c-10.237,5.849-25.023,3.053-41.86-6.665l-56.883-32.839V302.149l56.878,32.834
	c16.837,9.732,31.623,24.01,41.859,41.677c17.509,30.215,16.383,56.715,16.383,83.615
	C154.806,487.161,155.927,517.584,138.424,527.568"/>
<polygon fill="#0000FF" points="175.293,566.354 175.293,380.444 278.814,440.213 278.814,465.542 199.862,419.962 199.862,474.271
	267.208,513.147 267.208,538.219 199.862,499.344 199.862,555.219 278.814,600.794 278.814,626.123 "/>
<path fill="#0000FF" d="M396.221,674.326c-12.287,7.796-27.528,5.256-44.592-4.595c-16.842-9.728-31.401-25.181-42.547-44.399
	c-15.922-27.478-15.694-47.976-15.694-83.748c0-35.773-0.223-56.532,15.694-65.613c11.146-6.363,25.251-5.271,42.547,4.713
	c34.351,19.836,54.373,57.244,58.918,91.732l-24.795-14.321c-4.096-22.726-15.923-41.568-34.123-52.076
	c-9.564-5.523-18.205-6.072-23.892-2.308c-7.964,5.331-9.777,14.718-9.777,52.057c0,37.344,1.818,49.107,9.777,63.617
	c5.687,10.335,14.327,19.504,23.892,25.013c10.686,6.175,20.014,6.862,26.387,2.184c5.918-4.422,8.186-12.504,8.186-24.519v-10.439
	l-34.572-19.969v-24.016l59.146,34.153v28.461C410.775,654.273,406.911,667.444,396.221,674.326"/>
<path fill="#0000FF" d="M496.791,591.387l-36.4-21.012v58.217l36.4,21.026c16.377,9.456,27.527,5.188,27.527-13.077
	C524.319,618.248,513.168,600.847,496.791,591.387 M525.223,768.4L491.1,670.363l-30.714-17.745v78.344l-24.563-14.188V530.858
	l62.782,36.252c30.724,17.736,50.282,51.75,50.282,83.344c0,26.634-14.104,35.462-32.31,30.699l37.314,103.802L525.223,768.4z"/>
<polygon fill="#0000FF" points="578.712,799.282 578.712,613.352 682.227,673.125 682.227,698.449 603.276,652.87 603.276,707.179
	670.627,746.064 670.627,771.141 603.276,732.252 603.276,788.127 682.227,833.717 682.227,859.041 "/>
<polygon fill="#0000FF" points="708.184,874.019 708.184,688.104 811.703,747.873 811.703,773.197 732.752,727.622 732.752,781.936
	800.084,820.812 800.084,845.885 732.752,806.994 732.752,862.874 811.703,908.459 811.703,933.788 "/>
<path fill="#0000FF" d="M99.193,782.569c-24.342-14.051-41.854-30.689-57.328-57.649l16.377-9.085
	c11.827,20.408,24.796,32.082,41.4,41.662c21.164,12.227,33.451,8.872,33.451-9.145c0-8.098-2.056-16.071-6.378-23.003
	c-4.101-6.808-8.191-10.992-17.746-18.081L89.86,693.109c-13.2-9.708-23.659-20.977-30.719-32.621
	c-7.954-13.211-11.822-27.191-11.822-42.344c0-32.374,20.473-42.749,54.146-23.309c21.382,12.346,36.4,27.29,50.268,50.179
	l-15.695,8.69c-10.009-16.753-21.614-26.841-35.264-34.716c-19.109-11.027-29.578-4.545-29.578,11.892
	c0,6.808,1.823,13.857,6.136,20.789c4.101,6.541,10.701,13.492,18.205,19.129l18.428,13.769
	c15.014,11.289,23.437,20.319,30.26,31.307c8.867,14.011,13.186,29.815,13.186,45.743
	C157.429,795.829,133.098,802.137,99.193,782.569"/>
<polygon fill="#0000FF" points="268.7,878.871 268.7,797.667 202.949,759.7 202.949,840.92 178.381,826.711 178.381,640.81
	202.949,654.989 202.949,734.366 268.7,772.333 268.7,692.951 293.269,707.139 293.269,893.064 "/>
<path fill="#0000FF" d="M396.804,802.167c-5.687-10.335-14.555-19.895-24.104-25.413c-9.56-5.523-18.433-6.205-24.129-2.44
	c-7.953,5.341-9.555,14.86-9.555,52.19c0,37.349,1.602,48.706,9.555,63.221c5.691,10.336,14.569,19.9,24.129,25.424
	c9.55,5.508,18.423,6.2,24.104,2.421c7.964-5.316,9.564-14.847,9.564-52.181S404.768,816.681,396.804,802.167 M415.458,945.324
	c-11.146,6.357-25.473,5.128-42.759-4.847c-17.291-9.975-31.405-25.182-42.541-44.409c-15.933-27.473-15.7-47.971-15.7-83.744
	c0-35.768-0.232-56.527,15.7-65.612c11.136-6.363,25.25-5.267,42.541,4.708c17.291,9.989,31.613,25.314,42.759,44.547
	c15.928,27.479,15.474,47.838,15.474,83.61C430.932,915.35,431.381,936.248,415.458,945.324"/>
<polygon fill="#0000FF" points="589.522,1064.09 568.135,1051.744 535.143,902.402 502.384,1013.782 481.002,1001.441
	438.683,791.095 464.624,806.06 492.82,955.249 525.362,841.136 545.157,852.563 577.69,1004.257 605.899,887.64 631.836,902.609
	"/>
</svg>
